<?xml version="1.0" encoding="utf-8"?>
<!-- Generator: Adobe Illustrator 23.0.4, SVG Export Plug-In . SVG Version: 6.00 Build 0)  -->
<svg version="1.1" id="Layer_1" xmlns="http://www.w3.org/2000/svg" xmlns:xlink="http://www.w3.org/1999/xlink" x="0px" y="0px"
	 viewBox="0 0 1674 1674" style="enable-background:new 0 0 1674 1674;" xml:space="preserve">
<style type="text/css">
	.st0{fill:#f7f8f3;}
	.st1{fill:none;stroke:#ff6f5e;stroke-width:37;stroke-miterlimit:10;}
</style>
<title>logo</title>
<path class="st0" d="M227.1,1374.8l228-274.6c114,86.1,249,146.6,386.3,146.6c121,0,167.5-39.6,167.5-88.4
	c0-88.4-79.1-107-218.7-165.2l-188.4-79.1c-174.5-65.1-318.8-202.4-318.8-421.2c0-258.3,232.7-470,577.1-470
	c179.2,0,370,65.1,516.6,202.4l-200.2,251.3c-109.4-72.1-195.5-109.4-339.7-109.4c-88.4,0-149,32.6-149,102.4s86.1,95.4,237.4,151.2
	l174.5,72.1c202.4,74.5,318.8,204.8,318.8,414.2c0,256-214.1,484-605,484C615.7,1591.2,397,1521.4,227.1,1374.8z"/>
<path class="st1" d="M288.4,1429.7l228-274.6c114,86.1,249,146.6,386.3,146.6c121,0,167.5-39.6,167.5-88.4
	c0-88.4-79.1-107-218.7-165.2L663,969c-174.5-65.1-318.8-202.4-318.8-421.2c0-258.3,232.7-470,577.1-470
	c179.2,0,370,65.1,516.6,202.4l-200.1,251.3c-109.3-72.1-195.4-109.4-339.7-109.4c-88.4,0-149,32.6-149,102.4s86.1,95.4,237.4,151.2
	l174.5,72.1c202.4,74.5,318.8,204.8,318.8,414.2c0,256-214.1,484-605,484C677,1646.1,458.2,1576.3,288.4,1429.7z"/>
</svg>
