<svg id="Layer_1" data-name="Layer 1" xmlns="http://www.w3.org/2000/svg" viewBox="0 0 1674 1674">
  <defs>
    <style>
      .cls-1 {
        fill: #2c3d63;
      }

      .cls-2 {
        fill: #f7f8f3;
      }

      .cls-3 {
        fill: none;
        stroke: #ff6f5e;
        stroke-miterlimit: 10;
        stroke-width: 24px;
      }
    </style>
  </defs>
  <title>logo</title>
  <rect class="cls-1" width="1674" height="1674" rx="837"/>
  <path class="cls-2" d="M438.63,1199,584,1023.94c72.7,54.9,158.75,93.47,246.29,93.47,77.16,0,106.83-25.22,106.83-56.37,0-56.38-50.44-68.25-139.47-105.34L677.51,905.25C566.23,863.71,474.24,776.17,474.24,636.7c0-164.69,148.37-299.7,368-299.7,114.25,0,235.91,41.54,329.38,129.08L1044,626.32c-69.73-46-124.63-69.73-216.61-69.73-56.38,0-95,20.77-95,65.28s54.89,60.83,151.34,96.44L995,764.3c129.08,47.48,203.27,130.56,203.27,264.1,0,163.2-136.5,308.6-385.76,308.6C686.41,1337,546.94,1292.49,438.63,1199Z"/>
  <path class="cls-3" d="M477.72,1234l145.4-175.08c72.7,54.9,158.76,93.47,246.29,93.47,77.16,0,106.83-25.22,106.83-56.37,0-56.38-50.44-68.25-139.46-105.34L716.6,940.25C605.32,898.71,513.33,811.17,513.33,671.7,513.33,507,661.7,372,881.29,372c114.24,0,235.9,41.54,329.37,129.08l-127.6,160.24c-69.72-46-124.62-69.73-216.61-69.73-56.38,0-95,20.77-95,65.28s54.9,60.83,151.34,96.44l111.28,46c129.07,47.48,203.26,130.56,203.26,264.1,0,163.2-136.5,308.6-385.76,308.6C725.5,1372,586,1327.49,477.72,1234Z"/>
</svg>
