<svg id="Layer_1" data-name="Layer 1" xmlns="http://www.w3.org/2000/svg" viewBox="0 0 1674 1674">
  <defs>
    <style>
      .cls-1 {
        fill: #17262b;
      }

      .cls-2 {
        fill: #def1f1;
      }

      .cls-3 {
        fill: none;
        stroke: #4bb0a9;
        stroke-miterlimit: 10;
        stroke-width: 10px;
      }
    </style>
  </defs>
  <title>logo</title>
  <rect class="cls-1" width="1674" height="1674"/>
  <g>
    <path class="cls-2" d="M327.89,1299.66l185.82-223.75c92.91,70.16,202.88,119.46,314.75,119.46,98.61,0,136.53-32.23,136.53-72,0-72.06-64.47-87.23-178.24-134.63L633.17,924.22C491,871.13,373.39,759.26,373.39,581c0-210.47,189.62-383,470.25-383,146,0,301.49,53.09,420.94,165L1101.51,567.75C1012.4,509,942.23,478.63,824.68,478.63c-72,0-121.36,26.54-121.36,83.43s70.16,77.74,193.41,123.25l142.21,58.78c165,60.68,259.77,166.86,259.77,337.51,0,208.58-174.44,394.4-493,394.4C644.54,1476,466.3,1419.11,327.89,1299.66Z"/>
    <path class="cls-3" d="M375.29,1299.66l185.82-223.75C654,1146.07,764,1195.37,875.87,1195.37c98.6,0,136.53-32.23,136.53-72,0-72.06-64.47-87.23-178.24-134.63L680.57,924.22C538.36,871.13,420.8,759.26,420.8,581c0-210.47,189.61-383,470.24-383,146,0,301.49,53.09,421,165L1148.91,567.75C1059.8,509,989.64,478.63,872.08,478.63c-72.05,0-121.35,26.54-121.35,83.43s70.15,77.74,193.4,123.25l142.21,58.78c165,60.68,259.77,166.86,259.77,337.51,0,208.58-174.44,394.4-493,394.4C691.94,1476,513.71,1419.11,375.29,1299.66Z"/>
  </g>
</svg>
